# xmcd
#
# Track frame offsets:
#       150
#       653
#       13356
#       30079
#       45427
#       62064
#       74887
#       90670
#       104355
#       116895
#       124451
#       145065
#       161283
#
# Disc length: 2446 seconds
#
# Revision: 0
# Processed by: cddbd v1.5.1PL0 Copyright (c) Steve Scherf et al.
# Submitted via: CD-DA_X-Tractor v0.23
#
DISCID=af098c0d
DTITLE=Offspring - Conspirancy Of One
DYEAR=1324
DGENRE=rockdf
TTITLE0=rweg
TTITLE1=gyrw
TTITLE2=dfz
TTITLE3=fsd
TTITLE4=sae
TTITLE5=ag
TTITLE6=ahh
TTITLE7=hadhgs
TTITLE8=gaegda
TTITLE9=dsxc
TTITLE10=n mgd
TTITLE11=rwhy
TTITLE12=rwg
EXTD=
EXTT0=
EXTT1=
EXTT2=
EXTT3=
EXTT4=
EXTT5=
EXTT6=
EXTT7=
EXTT8=
EXTT9=
EXTT10=
EXTT11=
EXTT12=
PLAYORDER=
